<?xml version="1.0" standalone="no"?>
<!DOCTYPE svg PUBLIC "-//W3C//DTD SVG 20010904//EN"
 "http://www.w3.org/TR/2001/REC-SVG-20010904/DTD/svg10.dtd">
<svg version="1.0" xmlns="http://www.w3.org/2000/svg"
 width="1152.000000pt" height="648.000000pt" viewBox="0 0 1152.000000 648.000000"
 preserveAspectRatio="xMidYMid meet">

<g transform="translate(0.000000,648.000000) scale(0.100000,-0.100000)"
fill="#000000" stroke="none">
<path d="M610 5960 c0 -88 -2 -100 -19 -110 -23 -12 -51 -3 -51 16 0 8 -10 14
-25 14 -30 0 -31 -9 -4 -44 15 -19 30 -26 54 -26 76 0 95 31 95 160 0 89 0 90
-25 90 -25 0 -25 0 -25 -100z"/>
<path d="M777 6053 c-4 -3 -7 -75 -7 -160 0 -129 2 -153 15 -153 13 0 15 24
15 160 0 146 -4 173 -23 153z"/>
<path d="M918 6054 c-5 -4 -8 -61 -8 -126 l0 -118 45 0 c88 0 125 39 125 130
0 70 -36 111 -106 117 -27 3 -52 1 -56 -3z m96 -47 c11 -8 20 -31 23 -60 7
-57 -15 -97 -52 -97 -25 0 -25 1 -25 85 0 75 2 85 18 85 10 0 26 -6 36 -13z"/>
</g>
</svg>
